<svg width="154" height="32" fill="none" xmlns="http://www.w3.org/2000/svg"><path d="M53.299 0h-7.086v9.102c-1.474-1.734-3.093-2.493-5.287-2.493-4.748 0-7.84 3.793-7.84 9.644 0 6.031 3.236 9.932 8.236 9.932 2.266 0 3.848-.758 5.179-2.492v2.023h6.798V0zm-9.963 12.063c2.014 0 3.129 1.517 3.129 4.262 0 2.709-1.115 4.19-3.13 4.19-2.05 0-3.092-1.409-3.092-4.154 0-2.817 1.079-4.298 3.093-4.298zm33.177 8.054h-6.654c-.72 1.12-1.582 1.553-2.985 1.553-2.194 0-3.525-1.336-3.633-3.72H76.91v-.541c0-6.574-3.993-10.8-10.251-10.8-5.97 0-10.25 4.19-10.25 10.005 0 6.212 4.711 9.643 10.502 9.643 4.028 0 8.452-1.95 9.603-6.14zm-6.546-5.742h-6.69c.36-2.131 1.51-3.179 3.417-3.179 2.086 0 3.093 1.264 3.273 3.179zm27.151-1.842c-.396-4.876-4.424-5.996-8.812-5.996-5.863 0-9.028 2.059-9.028 5.887 0 4.587 4.28 5.237 7.769 5.996 2.553.578 3.633.65 3.633 1.806 0 .903-.828 1.48-2.23 1.48-1.835 0-2.662-.65-2.842-2.203h-6.726c.432 5.201 4.64 6.682 9.424 6.682 5.862 0 9.351-2.42 9.351-6.537 0-4.37-3.812-5.31-7.337-5.96-.863-.144-4.1-.325-4.1-1.77 0-.758.683-1.119 1.942-1.119 1.654 0 2.266.397 2.517 1.734h6.439zM107.808 0h-7.122v4.984h7.122V0zm0 7.079h-7.122v18.637h7.122V7.079zm22.998 0h-6.87v2.24c-1.259-1.915-2.697-2.782-5.179-2.782-4.82 0-7.913 3.504-7.913 8.994 0 5.525 2.949 8.848 7.841 8.848 2.23 0 3.884-.686 5.251-2.347v2.13c0 1.879-.288 3.36-2.769 3.36-1.583 0-2.266-.434-2.626-1.662h-7.085c.647 5.056 4.963 6.14 9.495 6.14 6.186 0 9.855-2.167 9.855-8.921v-16zm-9.927 4.768c2.05 0 3.201 1.372 3.201 3.756 0 2.42-1.115 3.792-3.165 3.792-2.014 0-3.165-1.372-3.165-3.792 0-2.384 1.115-3.756 3.129-3.756zm20.533-4.768h-6.834v18.637h7.121V15.458c0-1.77.72-3.142 2.734-3.142 1.654 0 2.41.94 2.41 2.962v10.438H154V13.94c0-4.045-1.69-7.368-6.69-7.368-2.517 0-4.352.903-5.898 2.818V7.079z" fill="#fff"/><path fill-rule="evenodd" clip-rule="evenodd" d="M2.997 1.637H0v24.079h8.992V15.683h3.996v10.033h3.996V15.683h3.997v10.033h2.997V1.637H6.994V11.67H2.997V1.637z" fill="#DA353B"/></svg>