<svg width="135" height="42" fill="none" xmlns="http://www.w3.org/2000/svg"><path d="M50.504 34V8.296h-2.268v10.656h-.072a5.21 5.21 0 00-1.044-1.764 5.878 5.878 0 00-1.512-1.26 6.469 6.469 0 00-1.872-.792 8 8 0 00-2.016-.252c-1.416 0-2.652.264-3.708.792a7.535 7.535 0 00-2.592 2.16c-.696.888-1.212 1.932-1.548 3.132a13.568 13.568 0 00-.504 3.744c0 1.32.168 2.58.504 3.78a9.333 9.333 0 001.548 3.132 7.71 7.71 0 002.592 2.124c1.056.504 2.292.756 3.708.756.672 0 1.344-.096 2.016-.288a8.692 8.692 0 001.944-.792c.6-.36 1.128-.792 1.584-1.296.48-.504.84-1.056 1.08-1.656h.072V34h2.088zm-14.868-9.288c0-.96.108-1.908.324-2.844.24-.96.6-1.812 1.08-2.556a5.944 5.944 0 011.908-1.8c.768-.48 1.692-.72 2.772-.72 1.2 0 2.208.24 3.024.72a5.632 5.632 0 012.016 1.8 7.03 7.03 0 011.116 2.556c.24.936.36 1.884.36 2.844s-.12 1.92-.36 2.88a7.041 7.041 0 01-1.116 2.52c-.504.744-1.176 1.356-2.016 1.836-.816.456-1.824.684-3.024.684-1.08 0-2.004-.228-2.772-.684a6.33 6.33 0 01-1.908-1.836 8.51 8.51 0 01-1.08-2.52c-.216-.96-.324-1.92-.324-2.88zm32.552-1.296H56.164c.096-.84.288-1.656.576-2.448a7.351 7.351 0 011.224-2.124 5.487 5.487 0 011.836-1.476c.72-.384 1.548-.576 2.484-.576.912 0 1.728.192 2.448.576.72.36 1.332.852 1.836 1.476.504.6.888 1.296 1.152 2.088.288.792.444 1.62.468 2.484zm-12.024 1.908h14.292a14.508 14.508 0 00-.36-3.816c-.288-1.272-.768-2.388-1.44-3.348a7.366 7.366 0 00-2.556-2.376c-1.056-.6-2.328-.9-3.816-.9-1.464 0-2.736.288-3.816.864a7.303 7.303 0 00-2.592 2.232c-.672.912-1.176 1.956-1.512 3.132a13.98 13.98 0 00-.468 3.6c0 1.32.156 2.58.468 3.78.336 1.176.84 2.22 1.512 3.132.672.888 1.536 1.596 2.592 2.124 1.08.504 2.352.756 3.816.756 2.352 0 4.164-.576 5.436-1.728 1.296-1.152 2.184-2.784 2.664-4.896h-2.268c-.36 1.44-1.008 2.592-1.944 3.456-.936.864-2.232 1.296-3.888 1.296-1.08 0-2.004-.228-2.772-.684a6.286 6.286 0 01-1.908-1.728 7.27 7.27 0 01-1.116-2.34 10.811 10.811 0 01-.324-2.556zm28.46-4.464h2.268c-.048-1.008-.252-1.884-.612-2.628a5.389 5.389 0 00-1.476-1.872 5.802 5.802 0 00-2.124-1.116 8.903 8.903 0 00-2.592-.36c-.816 0-1.644.096-2.484.288a7.641 7.641 0 00-2.232.9 5.084 5.084 0 00-1.656 1.62c-.408.672-.612 1.476-.612 2.412 0 .792.132 1.464.396 2.016.264.528.624.984 1.08 1.368.48.36 1.032.672 1.656.936.624.24 1.308.456 2.052.648l2.916.648c.504.12.996.264 1.476.432.504.168.948.384 1.332.648.384.24.684.552.9.936.24.36.36.816.36 1.368 0 .648-.168 1.2-.504 1.656-.312.432-.72.792-1.224 1.08a5.478 5.478 0 01-1.656.612c-.576.12-1.14.18-1.692.18-1.512 0-2.784-.384-3.816-1.152-1.008-.792-1.56-1.956-1.656-3.492h-2.268c.192 2.28.96 3.936 2.304 4.968 1.368 1.032 3.144 1.548 5.328 1.548.864 0 1.74-.096 2.628-.288a7.452 7.452 0 002.376-.936 5.773 5.773 0 001.764-1.728c.456-.72.684-1.584.684-2.592 0-.816-.156-1.524-.468-2.124a4.721 4.721 0 00-1.224-1.512 5.574 5.574 0 00-1.692-.972 7.824 7.824 0 00-1.908-.54l-3.024-.684a21.66 21.66 0 01-1.26-.36 6.813 6.813 0 01-1.26-.612 3.75 3.75 0 01-.972-.864c-.24-.36-.36-.792-.36-1.296 0-.6.132-1.104.396-1.512a2.901 2.901 0 011.044-.972c.432-.264.9-.444 1.404-.54a6.973 6.973 0 011.548-.18c.648 0 1.26.084 1.836.252.576.144 1.08.384 1.512.72.456.336.816.768 1.08 1.296.264.504.408 1.104.432 1.8zm6.244-12.564v3.636h2.268V8.296h-2.268zm0 7.128V34h2.268V15.424h-2.268zm22.304 17.064V15.424h-2.268v3.204h-.072a5.285 5.285 0 00-.936-1.44A6.299 6.299 0 00108.564 16a5.845 5.845 0 00-1.692-.828 6.345 6.345 0 00-1.944-.288c-1.344 0-2.544.252-3.6.756a7.485 7.485 0 00-2.628 2.016c-.696.84-1.236 1.836-1.62 2.988a11.772 11.772 0 00-.54 3.6c0 1.32.156 2.568.468 3.744.312 1.152.804 2.16 1.476 3.024a7.425 7.425 0 002.628 2.052c1.056.48 2.328.72 3.816.72 1.368 0 2.556-.348 3.564-1.044a6.585 6.585 0 002.34-2.772h.072v2.52c0 2.256-.468 3.984-1.404 5.184-.936 1.2-2.46 1.8-4.572 1.8a7.84 7.84 0 01-1.836-.216 5.478 5.478 0 01-1.656-.612c-.48-.288-.9-.672-1.26-1.152-.336-.456-.564-1.032-.684-1.728h-2.268c.072.984.336 1.824.792 2.52a6.175 6.175 0 001.764 1.764 8.01 8.01 0 002.412 1.008c.888.216 1.8.324 2.736.324 1.512 0 2.784-.204 3.816-.612 1.056-.408 1.908-.996 2.556-1.764.648-.768 1.116-1.704 1.404-2.808.312-1.104.468-2.34.468-3.708zm-8.244-.612c-1.056 0-1.968-.204-2.736-.612a6.07 6.07 0 01-1.908-1.656 7.23 7.23 0 01-1.116-2.376c-.24-.888-.36-1.8-.36-2.736 0-.96.108-1.896.324-2.808a7.57 7.57 0 011.116-2.484 5.727 5.727 0 011.908-1.728c.768-.456 1.692-.684 2.772-.684 1.08 0 1.992.228 2.736.684a5.597 5.597 0 011.872 1.8c.48.744.828 1.572 1.044 2.484.216.912.324 1.824.324 2.736a9.55 9.55 0 01-.396 2.736 7.223 7.223 0 01-1.116 2.376 6.21 6.21 0 01-1.872 1.656c-.744.408-1.608.612-2.592.612zm12.516-16.452V34h2.268V23.164a8.394 8.394 0 01.432-2.52c.288-.792.672-1.464 1.152-2.016a5.182 5.182 0 011.8-1.332c.72-.336 1.536-.504 2.448-.504.912 0 1.668.144 2.268.432.624.288 1.116.684 1.476 1.188.36.504.612 1.104.756 1.8.144.672.216 1.404.216 2.196V34h2.268V22.048c0-1.104-.108-2.1-.324-2.988-.216-.888-.588-1.632-1.116-2.232-.528-.624-1.236-1.104-2.124-1.44-.864-.336-1.944-.504-3.24-.504-1.32 0-2.532.348-3.636 1.044-1.104.672-1.872 1.572-2.304 2.7h-.072v-3.204h-2.268z" fill="#fff"/><path fill-rule="evenodd" clip-rule="evenodd" d="M3 6H0v24h9V20h4v10h4V20h4v10h3V6H7v10H3V6z" fill="#DA353B"/></svg>