<svg width="135" height="42" viewBox="0 0 135 42" fill="none" xmlns="http://www.w3.org/2000/svg">
<path d="M50.504 34V8.296H48.236V18.952H48.164C47.924 18.28 47.576 17.692 47.12 17.188C46.688 16.684 46.184 16.264 45.608 15.928C45.032 15.568 44.408 15.304 43.736 15.136C43.088 14.968 42.416 14.884 41.72 14.884C40.304 14.884 39.068 15.148 38.012 15.676C36.98 16.204 36.116 16.924 35.42 17.836C34.724 18.724 34.208 19.768 33.872 20.968C33.536 22.144 33.368 23.392 33.368 24.712C33.368 26.032 33.536 27.292 33.872 28.492C34.208 29.668 34.724 30.712 35.42 31.624C36.116 32.512 36.98 33.22 38.012 33.748C39.068 34.252 40.304 34.504 41.72 34.504C42.392 34.504 43.064 34.408 43.736 34.216C44.432 34.024 45.08 33.76 45.68 33.424C46.28 33.064 46.808 32.632 47.264 32.128C47.744 31.624 48.104 31.072 48.344 30.472H48.416V34H50.504ZM35.636 24.712C35.636 23.752 35.744 22.804 35.96 21.868C36.2 20.908 36.56 20.056 37.04 19.312C37.544 18.568 38.18 17.968 38.948 17.512C39.716 17.032 40.64 16.792 41.72 16.792C42.92 16.792 43.928 17.032 44.744 17.512C45.584 17.968 46.256 18.568 46.76 19.312C47.288 20.056 47.66 20.908 47.876 21.868C48.116 22.804 48.236 23.752 48.236 24.712C48.236 25.672 48.116 26.632 47.876 27.592C47.66 28.528 47.288 29.368 46.76 30.112C46.256 30.856 45.584 31.468 44.744 31.948C43.928 32.404 42.92 32.632 41.72 32.632C40.64 32.632 39.716 32.404 38.948 31.948C38.18 31.468 37.544 30.856 37.04 30.112C36.56 29.368 36.2 28.528 35.96 27.592C35.744 26.632 35.636 25.672 35.636 24.712ZM68.1879 23.416H56.1639C56.2599 22.576 56.4519 21.76 56.7399 20.968C57.0519 20.152 57.4599 19.444 57.9639 18.844C58.4679 18.22 59.0799 17.728 59.7999 17.368C60.5199 16.984 61.3479 16.792 62.2839 16.792C63.1959 16.792 64.0119 16.984 64.7319 17.368C65.4519 17.728 66.0639 18.22 66.5679 18.844C67.0719 19.444 67.4559 20.14 67.7199 20.932C68.0079 21.724 68.1639 22.552 68.1879 23.416ZM56.1639 25.324H70.4559C70.5039 24.028 70.3839 22.756 70.0959 21.508C69.8079 20.236 69.3279 19.12 68.6559 18.16C68.0079 17.176 67.1559 16.384 66.0999 15.784C65.0439 15.184 63.7719 14.884 62.2839 14.884C60.8199 14.884 59.5479 15.172 58.4679 15.748C57.4119 16.3 56.5479 17.044 55.8759 17.98C55.2039 18.892 54.6999 19.936 54.3639 21.112C54.0519 22.288 53.8959 23.488 53.8959 24.712C53.8959 26.032 54.0519 27.292 54.3639 28.492C54.6999 29.668 55.2039 30.712 55.8759 31.624C56.5479 32.512 57.4119 33.22 58.4679 33.748C59.5479 34.252 60.8199 34.504 62.2839 34.504C64.6359 34.504 66.4479 33.928 67.7199 32.776C69.0159 31.624 69.9039 29.992 70.3839 27.88H68.1159C67.7559 29.32 67.1079 30.472 66.1719 31.336C65.2359 32.2 63.9399 32.632 62.2839 32.632C61.2039 32.632 60.2799 32.404 59.5119 31.948C58.7439 31.492 58.1079 30.916 57.6039 30.22C57.0999 29.524 56.7279 28.744 56.4879 27.88C56.2719 26.992 56.1639 26.14 56.1639 25.324ZM84.6238 20.86H86.8918C86.8438 19.852 86.6398 18.976 86.2798 18.232C85.9198 17.488 85.4278 16.864 84.8038 16.36C84.2038 15.856 83.4958 15.484 82.6798 15.244C81.8878 15.004 81.0238 14.884 80.0878 14.884C79.2718 14.884 78.4438 14.98 77.6038 15.172C76.7878 15.364 76.0438 15.664 75.3718 16.072C74.6998 16.48 74.1478 17.02 73.7158 17.692C73.3078 18.364 73.1038 19.168 73.1038 20.104C73.1038 20.896 73.2358 21.568 73.4998 22.12C73.7638 22.648 74.1238 23.104 74.5798 23.488C75.0598 23.848 75.6118 24.16 76.2358 24.424C76.8598 24.664 77.5438 24.88 78.2878 25.072L81.2038 25.72C81.7078 25.84 82.1998 25.984 82.6798 26.152C83.1838 26.32 83.6278 26.536 84.0118 26.8C84.3958 27.04 84.6958 27.352 84.9118 27.736C85.1518 28.096 85.2718 28.552 85.2718 29.104C85.2718 29.752 85.1038 30.304 84.7678 30.76C84.4558 31.192 84.0478 31.552 83.5438 31.84C83.0398 32.128 82.4878 32.332 81.8878 32.452C81.3118 32.572 80.7478 32.632 80.1958 32.632C78.6838 32.632 77.4118 32.248 76.3798 31.48C75.3718 30.688 74.8198 29.524 74.7238 27.988H72.4558C72.6478 30.268 73.4158 31.924 74.7598 32.956C76.1278 33.988 77.9038 34.504 80.0878 34.504C80.9518 34.504 81.8278 34.408 82.7158 34.216C83.6038 34.024 84.3958 33.712 85.0918 33.28C85.8118 32.824 86.3998 32.248 86.8558 31.552C87.3118 30.832 87.5398 29.968 87.5398 28.96C87.5398 28.144 87.3838 27.436 87.0718 26.836C86.7598 26.236 86.3518 25.732 85.8478 25.324C85.3678 24.916 84.8038 24.592 84.1558 24.352C83.5318 24.088 82.8958 23.908 82.2478 23.812L79.2238 23.128C78.8398 23.032 78.4198 22.912 77.9638 22.768C77.5078 22.6 77.0878 22.396 76.7038 22.156C76.3198 21.916 75.9958 21.628 75.7318 21.292C75.4918 20.932 75.3718 20.5 75.3718 19.996C75.3718 19.396 75.5038 18.892 75.7678 18.484C76.0318 18.076 76.3798 17.752 76.8118 17.512C77.2438 17.248 77.7118 17.068 78.2158 16.972C78.7438 16.852 79.2598 16.792 79.7638 16.792C80.4118 16.792 81.0238 16.876 81.5998 17.044C82.1758 17.188 82.6798 17.428 83.1118 17.764C83.5678 18.1 83.9278 18.532 84.1918 19.06C84.4558 19.564 84.5998 20.164 84.6238 20.86ZM90.8679 8.296V11.932H93.1359V8.296H90.8679ZM90.8679 15.424V34H93.1359V15.424H90.8679ZM113.172 32.488V15.424H110.904V18.628H110.832C110.616 18.124 110.304 17.644 109.896 17.188C109.512 16.732 109.068 16.336 108.564 16C108.06 15.64 107.496 15.364 106.872 15.172C106.272 14.98 105.624 14.884 104.928 14.884C103.584 14.884 102.384 15.136 101.328 15.64C100.296 16.12 99.4204 16.792 98.7004 17.656C98.0044 18.496 97.4644 19.492 97.0804 20.644C96.7204 21.772 96.5404 22.972 96.5404 24.244C96.5404 25.564 96.6964 26.812 97.0084 27.988C97.3204 29.14 97.8124 30.148 98.4844 31.012C99.1804 31.876 100.056 32.56 101.112 33.064C102.168 33.544 103.44 33.784 104.928 33.784C106.296 33.784 107.484 33.436 108.492 32.74C109.524 32.044 110.304 31.12 110.832 29.968H110.904V32.488C110.904 34.744 110.436 36.472 109.5 37.672C108.564 38.872 107.04 39.472 104.928 39.472C104.304 39.472 103.692 39.4 103.092 39.256C102.492 39.136 101.94 38.932 101.436 38.644C100.956 38.356 100.536 37.972 100.176 37.492C99.8404 37.036 99.6124 36.46 99.4924 35.764H97.2244C97.2964 36.748 97.5604 37.588 98.0164 38.284C98.4964 39.004 99.0844 39.592 99.7804 40.048C100.5 40.504 101.304 40.84 102.192 41.056C103.08 41.272 103.992 41.38 104.928 41.38C106.44 41.38 107.712 41.176 108.744 40.768C109.8 40.36 110.652 39.772 111.3 39.004C111.948 38.236 112.416 37.3 112.704 36.196C113.016 35.092 113.172 33.856 113.172 32.488ZM104.928 31.876C103.872 31.876 102.96 31.672 102.192 31.264C101.424 30.832 100.788 30.28 100.284 29.608C99.7804 28.912 99.4084 28.12 99.1684 27.232C98.9284 26.344 98.8084 25.432 98.8084 24.496C98.8084 23.536 98.9164 22.6 99.1324 21.688C99.3724 20.752 99.7444 19.924 100.248 19.204C100.752 18.484 101.388 17.908 102.156 17.476C102.924 17.02 103.848 16.792 104.928 16.792C106.008 16.792 106.92 17.02 107.664 17.476C108.432 17.932 109.056 18.532 109.536 19.276C110.016 20.02 110.364 20.848 110.58 21.76C110.796 22.672 110.904 23.584 110.904 24.496C110.904 25.432 110.772 26.344 110.508 27.232C110.268 28.12 109.896 28.912 109.392 29.608C108.888 30.28 108.264 30.832 107.52 31.264C106.776 31.672 105.912 31.876 104.928 31.876ZM117.444 15.424V34H119.712V23.164C119.736 22.252 119.88 21.412 120.144 20.644C120.432 19.852 120.816 19.18 121.296 18.628C121.8 18.052 122.4 17.608 123.096 17.296C123.816 16.96 124.632 16.792 125.544 16.792C126.456 16.792 127.212 16.936 127.812 17.224C128.436 17.512 128.928 17.908 129.288 18.412C129.648 18.916 129.9 19.516 130.044 20.212C130.188 20.884 130.26 21.616 130.26 22.408V34H132.528V22.048C132.528 20.944 132.42 19.948 132.204 19.06C131.988 18.172 131.616 17.428 131.088 16.828C130.56 16.204 129.852 15.724 128.964 15.388C128.1 15.052 127.02 14.884 125.724 14.884C124.404 14.884 123.192 15.232 122.088 15.928C120.984 16.6 120.216 17.5 119.784 18.628H119.712V15.424H117.444Z" fill="white"/>
<path fill-rule="evenodd" clip-rule="evenodd" d="M3 6H0V30H9V20H13V30H17V20H21V30H24V6H7V16H3V6Z" fill="#DA353B"/>
</svg>
