<svg width="24" height="24" fill="none" xmlns="http://www.w3.org/2000/svg"><path d="M24 14.594v8.873h-5.144v-8.28c0-2.079-.744-3.498-2.606-3.498-1.421 0-2.267.956-2.64 1.882-.135.33-.17.79-.17 1.254v8.642H8.294s.07-14.022 0-15.475h5.146v2.194l-.034.05h.034v-.05c.683-1.053 1.904-2.557 4.637-2.557 3.385 0 5.923 2.212 5.923 6.965zM2.912.534C1.152.533 0 1.687 0 3.205 0 4.691 1.118 5.88 2.843 5.88h.035c1.794 0 2.91-1.19 2.91-2.675C5.754 1.688 4.672.533 2.912.533zM.306 23.466h5.143V7.992H.306v15.475z" fill="#fff"/></svg>