<svg width="24" height="20" fill="none" xmlns="http://www.w3.org/2000/svg"><path d="M24 2.56a9.833 9.833 0 01-2.827.775A4.944 4.944 0 0023.337.613a9.925 9.925 0 01-3.128 1.195 4.924 4.924 0 00-8.39 4.489A13.978 13.978 0 011.672 1.152a4.886 4.886 0 00-.666 2.475 4.92 4.92 0 002.19 4.097 4.924 4.924 0 01-2.23-.618v.062a4.928 4.928 0 003.949 4.827 4.99 4.99 0 01-1.298.173c-.318 0-.625-.032-.927-.092a4.926 4.926 0 004.599 3.42A9.878 9.878 0 011.174 17.6c-.397 0-.789-.024-1.174-.068a13.916 13.916 0 007.547 2.215c9.056 0 14.007-7.501 14.007-14.007l-.016-.637A9.831 9.831 0 0024 2.559z" fill="#fff"/></svg>