<svg width="24" height="24" fill="none" xmlns="http://www.w3.org/2000/svg"><path d="M23.094.906A2.963 2.963 0 0020.922 0H3.078C2.234 0 1.511.302.906.906A2.963 2.963 0 000 3.078v17.844c0 .843.302 1.567.906 2.171.605.605 1.329.907 2.172.907h17.844c.843 0 1.568-.302 2.172-.907A2.962 2.962 0 0024 20.922V3.078c0-.844-.302-1.567-.906-2.172zM8.617 8.648c.943-.911 2.076-1.367 3.399-1.367 1.333 0 2.471.456 3.414 1.367.943.912 1.414 2.014 1.414 3.305 0 1.292-.471 2.393-1.414 3.305-.943.911-2.08 1.367-3.414 1.367-1.323 0-2.456-.456-3.399-1.367-.942-.912-1.414-2.013-1.414-3.305 0-1.291.472-2.393 1.414-3.305zm12.665 11.633a.91.91 0 01-.282.68.931.931 0 01-.672.273H3.625a.922.922 0 01-.68-.273.922.922 0 01-.273-.68V10.156h2.203a6.728 6.728 0 00-.312 2.047c0 2 .729 3.706 2.187 5.118 1.459 1.41 3.214 2.117 5.266 2.117a7.51 7.51 0 003.75-.97 7.296 7.296 0 002.719-2.632 6.93 6.93 0 001-3.633 6.73 6.73 0 00-.313-2.047h2.11v10.126zm0-13.953c0 .302-.105.557-.313.766a1.04 1.04 0 01-.766.312h-2.718c-.302 0-.558-.104-.766-.312a1.041 1.041 0 01-.313-.766V3.75c0-.292.105-.544.313-.758a1.03 1.03 0 01.765-.32h2.72c.301 0 .557.107.765.32.208.214.313.466.313.758v2.578z" fill="#fff"/></svg>